<svg width="14" height="14" viewBox="0 0 14 14" fill="none" xmlns="http://www.w3.org/2000/svg">
<g clip-path="url(#clip0_242_381)">
<path d="M6.95238 0C5.57733 0 4.23316 0.410543 3.08985 1.17971C1.94653 1.94888 1.05543 3.04213 0.529222 4.32122C0.00301234 5.6003 -0.134668 7.00777 0.133591 8.36564C0.40185 9.7235 1.064 10.9708 2.03631 11.9498C3.00862 12.9287 4.24741 13.5954 5.59604 13.8655C6.94467 14.1356 8.34256 13.997 9.61294 13.4672C10.8833 12.9373 11.9691 12.0401 12.7331 10.889C13.497 9.73785 13.9048 8.38447 13.9048 7C13.9028 5.1441 13.1696 3.36479 11.8663 2.05247C10.5629 0.74015 8.79566 0.0020073 6.95238 0ZM6.95238 12.8333C5.80651 12.8333 4.68636 12.4912 3.7336 11.8502C2.78084 11.2093 2.03826 10.2982 1.59975 9.23232C1.16124 8.16642 1.04651 6.99353 1.27006 5.86198C1.49361 4.73042 2.0454 3.69102 2.85565 2.87521C3.66591 2.05941 4.69824 1.50383 5.8221 1.27875C6.94596 1.05367 8.11087 1.16919 9.16952 1.6107C10.2282 2.05221 11.133 2.79989 11.7696 3.75918C12.4062 4.71846 12.746 5.84628 12.746 7C12.7443 8.54658 12.1334 10.0293 11.0472 11.1229C9.96109 12.2165 8.48844 12.8316 6.95238 12.8333ZM9.84921 7C9.84921 7.15471 9.78817 7.30309 9.67952 7.41248C9.57086 7.52188 9.4235 7.58334 9.26984 7.58334H7.53175V9.33334C7.53175 9.48805 7.47071 9.63642 7.36206 9.74582C7.2534 9.85521 7.10604 9.91667 6.95238 9.91667C6.79873 9.91667 6.65136 9.85521 6.54271 9.74582C6.43406 9.63642 6.37302 9.48805 6.37302 9.33334V7.58334H4.63492C4.48127 7.58334 4.3339 7.52188 4.22525 7.41248C4.1166 7.30309 4.05556 7.15471 4.05556 7C4.05556 6.84529 4.1166 6.69692 4.22525 6.58752C4.3339 6.47813 4.48127 6.41667 4.63492 6.41667H6.37302V4.66667C6.37302 4.51196 6.43406 4.36359 6.54271 4.25419C6.65136 4.14479 6.79873 4.08334 6.95238 4.08334C7.10604 4.08334 7.2534 4.14479 7.36206 4.25419C7.47071 4.36359 7.53175 4.51196 7.53175 4.66667V6.41667H9.26984C9.4235 6.41667 9.57086 6.47813 9.67952 6.58752C9.78817 6.69692 9.84921 6.84529 9.84921 7Z" fill="#93C0B5"/>
</g>
<defs>
<clipPath id="clip0_242_381">
<rect width="13.9048" height="14" fill="white"/>
</clipPath>
</defs>
</svg>
