<svg width="27" height="24" viewBox="0 0 27 24" fill="none" xmlns="http://www.w3.org/2000/svg">
<g clip-path="url(#clip0_333_230)">
<path d="M18.7966 15.3851L17.2132 9.6884C16.7491 8.01951 15.7405 6.55364 14.3477 5.52379C12.9548 4.49394 11.2577 3.95922 9.52611 4.00462C7.79448 4.05002 6.12773 4.67294 4.79077 5.77436C3.45382 6.87578 2.52339 8.39249 2.14738 10.0834L0.921551 15.5959C0.786147 16.205 0.789277 16.8368 0.930711 17.4445C1.07215 18.0522 1.34827 18.6205 1.7387 19.1072C2.12913 19.5939 2.6239 19.9868 3.18648 20.2567C3.74905 20.5266 4.36507 20.6668 4.98905 20.6667H5.91739C6.10865 21.6086 6.61966 22.4555 7.36384 23.0637C8.10801 23.672 9.03959 24.0042 10.0007 24.0042C10.9618 24.0042 11.8934 23.672 12.6376 23.0637C13.3818 22.4555 13.8928 21.6086 14.0841 20.6667H14.7824C15.4247 20.6668 16.0584 20.5183 16.6339 20.2329C17.2093 19.9476 17.711 19.533 18.0997 19.0216C18.4885 18.5103 18.7537 17.9159 18.8747 17.2851C18.9957 16.6543 18.9693 16.004 18.7974 15.3851H18.7966ZM10.0007 22.3334C9.4855 22.3313 8.98353 22.17 8.56347 21.8717C8.14341 21.5733 7.82579 21.1525 7.65405 20.6667H12.3474C12.1756 21.1525 11.858 21.5733 11.438 21.8717C11.0179 22.17 10.5159 22.3313 10.0007 22.3334ZM16.7724 18.0126C16.5402 18.3206 16.2393 18.5703 15.8937 18.7417C15.5481 18.9131 15.1673 19.0016 14.7816 19.0001H4.98905C4.61471 19 4.24515 18.9159 3.90767 18.7539C3.57019 18.5919 3.27339 18.3562 3.03919 18.0641C2.80498 17.7721 2.63935 17.4312 2.55452 17.0666C2.46969 16.702 2.46782 16.323 2.54905 15.9576L3.77405 10.4442C4.06935 9.11607 4.80014 7.92474 5.85027 7.05961C6.90039 6.19448 8.20957 5.70521 9.5697 5.66958C10.9298 5.63395 12.2628 6.054 13.3568 6.86296C14.4508 7.67192 15.243 8.82336 15.6074 10.1342L17.1907 15.8309C17.2953 16.202 17.312 16.5925 17.2394 16.9712C17.1668 17.3499 17.0069 17.7064 16.7724 18.0126Z" fill="black"/>
</g>
<circle cx="20" cy="7" r="7" fill="#93C0B5"/>
<defs>
<clipPath id="clip0_333_230">
<rect width="20" height="20" fill="white" transform="translate(0 4)"/>
</clipPath>
</defs>
</svg>
