<svg width="16" height="10" viewBox="0 0 16 10" fill="none" xmlns="http://www.w3.org/2000/svg">
<path d="M14.8596 0.72594L5.6477 7.8269C5.58577 7.87483 5.51217 7.91286 5.43112 7.93882C5.35007 7.96477 5.26317 7.97813 5.17541 7.97813C5.08765 7.97813 5.00075 7.96477 4.9197 7.93882C4.83866 7.91286 4.76505 7.87483 4.70312 7.8269L1.14076 5.07809C1.07883 5.03015 1.00522 4.99212 0.924176 4.96617C0.843128 4.94022 0.75623 4.92686 0.668468 4.92686C0.580707 4.92686 0.493809 4.94022 0.412761 4.96617C0.331713 4.99212 0.25811 5.03015 0.196176 5.07809C0.133997 5.12583 0.0846593 5.18258 0.0509944 5.24506C0.0173296 5.30754 0 5.37453 0 5.44218C0 5.50984 0.0173296 5.57683 0.0509944 5.63931C0.0846593 5.70179 0.133997 5.75853 0.196176 5.80627L3.75987 8.55303C4.1358 8.8423 4.64526 9.00476 5.17641 9.00476C5.70757 9.00476 6.21702 8.8423 6.59296 8.55303L15.8042 1.45361C15.8662 1.40587 15.9155 1.34917 15.9491 1.28673C15.9827 1.2243 16 1.15737 16 1.08978C16 1.02218 15.9827 0.95525 15.9491 0.892817C15.9155 0.830384 15.8662 0.773676 15.8042 0.72594C15.7422 0.678006 15.6686 0.639971 15.5876 0.614019C15.5065 0.588067 15.4196 0.574707 15.3319 0.574707C15.2441 0.574707 15.1572 0.588067 15.0762 0.614019C14.9951 0.639971 14.9215 0.678006 14.8596 0.72594Z" fill="#93C0B5"/>
</svg>
