<svg width="47" height="24" viewBox="0 0 47 24" fill="none" xmlns="http://www.w3.org/2000/svg">
<path d="M5.112 16.192C4.744 16.192 4.464 16.088 4.272 15.88C4.08 15.656 3.984 15.36 3.984 14.992C3.984 14.624 4.08 14.328 4.272 14.104C4.464 13.864 4.744 13.744 5.112 13.744H16.776C18.696 13.744 19.656 14.544 19.656 16.144V17.416C19.656 19.016 18.696 19.816 16.776 19.816H7.992V20.272C7.992 20.448 8.024 20.592 8.088 20.704C8.168 20.832 8.336 20.936 8.592 21.016C8.864 21.096 9.248 21.152 9.744 21.184C10.24 21.232 10.912 21.256 11.76 21.256C13.104 21.256 14.344 21.2 15.48 21.088C16.632 20.992 17.584 20.856 18.336 20.68C18.8 20.568 19.16 20.584 19.416 20.728C19.688 20.888 19.864 21.144 19.944 21.496C20.024 21.864 20 22.184 19.872 22.456C19.76 22.728 19.48 22.928 19.032 23.056C18.216 23.28 17.2 23.448 15.984 23.56C14.768 23.688 13.36 23.752 11.76 23.752C10.288 23.752 9.072 23.688 8.112 23.56C7.168 23.448 6.416 23.272 5.856 23.032C5.312 22.792 4.928 22.48 4.704 22.096C4.48 21.728 4.368 21.288 4.368 20.776C4.368 20.6 4.376 20.432 4.392 20.272C4.424 20.112 4.456 19.952 4.488 19.792C4.2 19.76 3.976 19.64 3.816 19.432C3.672 19.224 3.6 18.96 3.6 18.64C3.6 18.272 3.696 17.984 3.888 17.776C4.08 17.568 4.36 17.464 4.728 17.464H15.432C15.672 17.464 15.84 17.432 15.936 17.368C16.032 17.288 16.08 17.16 16.08 16.984V16.672C16.08 16.352 15.864 16.192 15.432 16.192H5.112ZM17.16 5.776H19.056C19.424 5.776 19.704 5.88 19.896 6.088C20.088 6.296 20.184 6.576 20.184 6.928C20.184 7.28 20.088 7.56 19.896 7.768C19.704 7.976 19.424 8.08 19.056 8.08H4.392C4.024 8.08 3.744 7.976 3.552 7.768C3.36 7.56 3.264 7.28 3.264 6.928C3.264 6.576 3.36 6.296 3.552 6.088C3.744 5.88 4.024 5.776 4.392 5.776H6.36V3.232H4.488C4.072 3.232 3.752 3.12 3.528 2.896C3.304 2.672 3.192 2.36 3.192 1.96C3.192 1.56 3.304 1.248 3.528 1.024C3.752 0.8 4.072 0.688 4.488 0.688H18.96C19.376 0.688 19.696 0.8 19.92 1.024C20.144 1.248 20.256 1.56 20.256 1.96C20.256 2.36 20.144 2.672 19.92 2.896C19.696 3.12 19.376 3.232 18.96 3.232H17.16V5.776ZM21.312 9.232C21.728 9.232 22.048 9.336 22.272 9.544C22.496 9.752 22.608 10.064 22.608 10.48C22.608 10.896 22.496 11.208 22.272 11.416C22.048 11.624 21.728 11.728 21.312 11.728H13.632V12.256C13.632 12.576 13.48 12.832 13.176 13.024C12.872 13.216 12.4 13.312 11.76 13.312C11.12 13.312 10.648 13.216 10.344 13.024C10.04 12.832 9.888 12.576 9.888 12.256V11.728H2.208C1.792 11.728 1.472 11.624 1.248 11.416C1.024 11.208 0.912 10.896 0.912 10.48C0.912 10.064 1.024 9.752 1.248 9.544C1.472 9.336 1.792 9.232 2.208 9.232H21.312ZM9.792 5.776H13.728V3.232H9.792V5.776ZM28.6433 16.192C28.2753 16.192 27.9953 16.088 27.8033 15.88C27.6113 15.656 27.5153 15.36 27.5153 14.992C27.5153 14.624 27.6113 14.328 27.8033 14.104C27.9953 13.864 28.2753 13.744 28.6433 13.744H40.3073C42.2273 13.744 43.1873 14.544 43.1873 16.144V17.416C43.1873 19.016 42.2273 19.816 40.3073 19.816H31.5233V20.272C31.5233 20.448 31.5553 20.592 31.6193 20.704C31.6993 20.832 31.8673 20.936 32.1233 21.016C32.3953 21.096 32.7793 21.152 33.2753 21.184C33.7713 21.232 34.4433 21.256 35.2913 21.256C36.6353 21.256 37.8753 21.2 39.0113 21.088C40.1633 20.992 41.1153 20.856 41.8673 20.68C42.3313 20.568 42.6913 20.584 42.9473 20.728C43.2193 20.888 43.3953 21.144 43.4753 21.496C43.5553 21.864 43.5313 22.184 43.4033 22.456C43.2913 22.728 43.0113 22.928 42.5633 23.056C41.7473 23.28 40.7313 23.448 39.5153 23.56C38.2993 23.688 36.8913 23.752 35.2913 23.752C33.8193 23.752 32.6033 23.688 31.6433 23.56C30.6993 23.448 29.9473 23.272 29.3873 23.032C28.8433 22.792 28.4593 22.48 28.2353 22.096C28.0113 21.728 27.8993 21.288 27.8993 20.776C27.8993 20.6 27.9073 20.432 27.9233 20.272C27.9553 20.112 27.9873 19.952 28.0193 19.792C27.7313 19.76 27.5073 19.64 27.3473 19.432C27.2033 19.224 27.1313 18.96 27.1313 18.64C27.1313 18.272 27.2273 17.984 27.4193 17.776C27.6113 17.568 27.8913 17.464 28.2593 17.464H38.9633C39.2033 17.464 39.3713 17.432 39.4673 17.368C39.5633 17.288 39.6113 17.16 39.6113 16.984V16.672C39.6113 16.352 39.3953 16.192 38.9633 16.192H28.6433ZM40.6913 5.776H42.5873C42.9553 5.776 43.2353 5.88 43.4273 6.088C43.6193 6.296 43.7153 6.576 43.7153 6.928C43.7153 7.28 43.6193 7.56 43.4273 7.768C43.2353 7.976 42.9553 8.08 42.5873 8.08H27.9233C27.5553 8.08 27.2753 7.976 27.0833 7.768C26.8913 7.56 26.7953 7.28 26.7953 6.928C26.7953 6.576 26.8913 6.296 27.0833 6.088C27.2753 5.88 27.5553 5.776 27.9233 5.776H29.8913V3.232H28.0193C27.6033 3.232 27.2833 3.12 27.0592 2.896C26.8353 2.672 26.7233 2.36 26.7233 1.96C26.7233 1.56 26.8353 1.248 27.0592 1.024C27.2833 0.8 27.6033 0.688 28.0193 0.688H42.4913C42.9073 0.688 43.2273 0.8 43.4513 1.024C43.6753 1.248 43.7873 1.56 43.7873 1.96C43.7873 2.36 43.6753 2.672 43.4513 2.896C43.2273 3.12 42.9073 3.232 42.4913 3.232H40.6913V5.776ZM44.8433 9.232C45.2593 9.232 45.5793 9.336 45.8033 9.544C46.0273 9.752 46.1393 10.064 46.1393 10.48C46.1393 10.896 46.0273 11.208 45.8033 11.416C45.5793 11.624 45.2593 11.728 44.8433 11.728H37.1633V12.256C37.1633 12.576 37.0113 12.832 36.7073 13.024C36.4033 13.216 35.9313 13.312 35.2913 13.312C34.6513 13.312 34.1793 13.216 33.8753 13.024C33.5713 12.832 33.4193 12.576 33.4193 12.256V11.728H25.7393C25.3233 11.728 25.0033 11.624 24.7793 11.416C24.5553 11.208 24.4433 10.896 24.4433 10.48C24.4433 10.064 24.5553 9.752 24.7793 9.544C25.0033 9.336 25.3233 9.232 25.7393 9.232H44.8433ZM33.3233 5.776H37.2593V3.232H33.3233V5.776Z" fill="#93C0B5"/>
</svg>
