<svg width="100" height="100" viewBox="0 0 100 100" fill="none" xmlns="http://www.w3.org/2000/svg">
<circle cx="50" cy="50" r="50" fill="#EAEAEA"/>
<g clip-path="url(#clip0_621_537)">
<path d="M69.7279 46.6663C69.728 46.5447 69.7147 46.4234 69.6882 46.3047L67.5363 36.5247C67.1364 34.6684 66.1149 33.007 64.6429 31.819C63.171 30.631 61.3381 29.9886 59.4516 29.9997H40.2763C38.391 29.9902 36.5596 30.6332 35.089 31.8211C33.6184 33.0089 32.5979 34.6695 32.1983 36.5247L30.0397 46.3047C30.0133 46.4234 29.9999 46.5447 30 46.6663V48.333C29.9987 49.9556 30.5875 51.5226 31.6553 52.738V61.6663C31.658 63.8756 32.5308 65.9937 34.0824 67.556C35.634 69.1182 37.7377 69.997 39.932 69.9997H59.7959C61.9902 69.997 64.0939 69.1182 65.6455 67.556C67.1971 65.9937 68.07 63.8756 68.0726 61.6663V52.738C69.1404 51.5226 69.7292 49.9556 69.7279 48.333V46.6663ZM33.3107 46.848L35.4295 37.248C35.6696 36.1351 36.282 35.1389 37.1643 34.4263C38.0466 33.7136 39.1452 33.3277 40.2763 33.333H41.5873V38.333C41.5873 38.775 41.7617 39.1989 42.0721 39.5115C42.3826 39.8241 42.8036 39.9997 43.2426 39.9997C43.6817 39.9997 44.1027 39.8241 44.4131 39.5115C44.7236 39.1989 44.898 38.775 44.898 38.333V33.333H54.8299V38.333C54.8299 38.775 55.0043 39.1989 55.3148 39.5115C55.6252 39.8241 56.0463 39.9997 56.4853 39.9997C56.9243 39.9997 57.3453 39.8241 57.6558 39.5115C57.9662 39.1989 58.1406 38.775 58.1406 38.333V33.333H59.4516C60.5827 33.3277 61.6813 33.7136 62.5636 34.4263C63.4459 35.1389 64.0583 36.1351 64.2984 37.248L66.4173 46.848V48.333C66.4173 49.217 66.0685 50.0649 65.4476 50.69C64.8267 51.3151 63.9846 51.6663 63.1066 51.6663H61.4513C60.5732 51.6663 59.7311 51.3151 59.1103 50.69C58.4894 50.0649 58.1406 49.217 58.1406 48.333C58.1406 47.891 57.9662 47.467 57.6558 47.1545C57.3453 46.8419 56.9243 46.6663 56.4853 46.6663C56.0463 46.6663 55.6252 46.8419 55.3148 47.1545C55.0043 47.467 54.8299 47.891 54.8299 48.333C54.8299 49.217 54.4811 50.0649 53.8603 50.69C53.2394 51.3151 52.3973 51.6663 51.5193 51.6663H48.2086C47.3306 51.6663 46.4885 51.3151 45.8676 50.69C45.2468 50.0649 44.898 49.217 44.898 48.333C44.898 47.891 44.7236 47.467 44.4131 47.1545C44.1027 46.8419 43.6817 46.6663 43.2426 46.6663C42.8036 46.6663 42.3826 46.8419 42.0721 47.1545C41.7617 47.467 41.5873 47.891 41.5873 48.333C41.5873 49.217 41.2385 50.0649 40.6176 50.69C39.9968 51.3151 39.1547 51.6663 38.2766 51.6663H36.6213C35.7433 51.6663 34.9012 51.3151 34.2803 50.69C33.6595 50.0649 33.3107 49.217 33.3107 48.333V46.848ZM59.7959 66.6663H39.932C38.6149 66.6663 37.3518 66.1395 36.4205 65.2019C35.4892 64.2642 34.966 62.9924 34.966 61.6663V54.788C35.5066 54.9289 36.0629 55.0001 36.6213 54.9997H38.2766C39.2166 55.0002 40.1458 54.7987 41.0022 54.4086C41.8585 54.0186 42.6224 53.449 43.2426 52.738C43.8629 53.449 44.6267 54.0186 45.4831 54.4086C46.3395 54.7987 47.2687 55.0002 48.2086 54.9997H51.5193C52.4592 55.0002 53.3884 54.7987 54.2448 54.4086C55.1012 54.0186 55.865 53.449 56.4853 52.738C57.1055 53.449 57.8694 54.0186 58.7258 54.4086C59.5821 54.7987 60.5113 55.0002 61.4513 54.9997H63.1066C63.6651 55.0001 64.2213 54.9289 64.7619 54.788V61.6663C64.7619 62.9924 64.2387 64.2642 63.3074 65.2019C62.3761 66.1395 61.113 66.6663 59.7959 66.6663Z" fill="white"/>
</g>
<defs>
<clipPath id="clip0_621_537">
<rect width="39.7279" height="40" fill="white" transform="translate(30 30)"/>
</clipPath>
</defs>
</svg>
