<svg width="20" height="20" viewBox="0 0 20 20" fill="none" xmlns="http://www.w3.org/2000/svg">
<g clip-path="url(#clip0_702_3)">
<path d="M18.7966 11.385L17.2132 5.68834C16.7491 4.01945 15.7405 2.55358 14.3477 1.52373C12.9548 0.493884 11.2577 -0.0408381 9.52611 0.00456195C7.79448 0.049962 6.12773 0.672879 4.79077 1.7743C3.45382 2.87571 2.52339 4.39242 2.14738 6.08334L0.921551 11.5958C0.786147 12.205 0.789277 12.8367 0.930711 13.4444C1.07215 14.0522 1.34827 14.6204 1.7387 15.1071C2.12913 15.5939 2.6239 15.9867 3.18648 16.2566C3.74905 16.5266 4.36507 16.6667 4.98905 16.6667H5.91738C6.10865 17.6086 6.61966 18.4554 7.36384 19.0637C8.10801 19.6719 9.03959 20.0042 10.0007 20.0042C10.9618 20.0042 11.8934 19.6719 12.6376 19.0637C13.3818 18.4554 13.8928 17.6086 14.0841 16.6667H14.7824C15.4247 16.6667 16.0584 16.5183 16.6339 16.2329C17.2093 15.9475 17.711 15.5329 18.0997 15.0216C18.4885 14.5102 18.7537 13.9159 18.8747 13.285C18.9957 12.6542 18.9693 12.0039 18.7974 11.385H18.7966ZM10.0007 18.3333C9.4855 18.3312 8.98353 18.1699 8.56347 17.8716C8.14341 17.5733 7.82579 17.1524 7.65405 16.6667H12.3474C12.1757 17.1524 11.858 17.5733 11.438 17.8716C11.0179 18.1699 10.5159 18.3312 10.0007 18.3333V18.3333ZM16.7724 14.0125C16.5402 14.3206 16.2393 14.5702 15.8937 14.7416C15.5481 14.9131 15.1673 15.0015 14.7816 15H4.98905C4.61471 14.9999 4.24515 14.9158 3.90767 14.7538C3.57019 14.5918 3.27339 14.3561 3.03919 14.0641C2.80498 13.7721 2.63935 13.4312 2.55452 13.0665C2.46969 12.7019 2.46782 12.3229 2.54905 11.9575L3.77405 6.44417C4.06935 5.11601 4.80014 3.92468 5.85026 3.05955C6.90039 2.19442 8.20957 1.70515 9.5697 1.66952C10.9298 1.63389 12.2628 2.05394 13.3568 2.8629C14.4508 3.67186 15.243 4.8233 15.6074 6.13417L17.1907 11.8308C17.2953 12.202 17.312 12.5924 17.2394 12.9711C17.1668 13.3498 17.0069 13.7064 16.7724 14.0125V14.0125Z" fill="black"/>
</g>
<defs>
<clipPath id="clip0_702_3">
<rect width="20" height="20" fill="white"/>
</clipPath>
</defs>
</svg>
