<svg width="40" height="40" viewBox="0 0 40 40" fill="none" xmlns="http://www.w3.org/2000/svg">
<circle cx="20" cy="20" r="20" fill="#EAEAEA"/>
<g clip-path="url(#clip0_242_415)">
<path d="M20.0694 20C21.0651 20 22.0384 19.7068 22.8663 19.1573C23.6942 18.6079 24.3394 17.827 24.7204 16.9134C25.1015 15.9998 25.2012 14.9945 25.0069 14.0246C24.8127 13.0546 24.3332 12.1637 23.6292 11.4645C22.9251 10.7652 22.0281 10.289 21.0515 10.0961C20.075 9.90315 19.0628 10.0022 18.1429 10.3806C17.223 10.759 16.4367 11.3999 15.8836 12.2222C15.3304 13.0444 15.0352 14.0111 15.0352 15C15.0365 16.3257 15.5673 17.5967 16.5111 18.5341C17.4549 19.4715 18.7346 19.9987 20.0694 20ZM20.0694 11.6667C20.7332 11.6667 21.3821 11.8622 21.934 12.2284C22.4859 12.5947 22.9161 13.1153 23.1701 13.7244C23.4241 14.3335 23.4906 15.0037 23.3611 15.6503C23.2316 16.2969 22.9119 16.8909 22.4426 17.357C21.9732 17.8232 21.3752 18.1407 20.7242 18.2693C20.0731 18.3979 19.3983 18.3319 18.7851 18.0796C18.1718 17.8273 17.6476 17.4001 17.2789 16.8519C16.9101 16.3037 16.7132 15.6593 16.7132 15C16.7132 14.1159 17.0668 13.2681 17.6962 12.643C18.3256 12.0179 19.1793 11.6667 20.0694 11.6667Z" fill="white"/>
<path d="M20.0689 21.6665C18.0669 21.6687 16.1475 22.4596 14.7318 23.8656C13.3161 25.2717 12.5198 27.1781 12.5176 29.1665C12.5176 29.3875 12.606 29.5995 12.7633 29.7558C12.9207 29.912 13.1341 29.9998 13.3566 29.9998C13.5791 29.9998 13.7926 29.912 13.9499 29.7558C14.1073 29.5995 14.1957 29.3875 14.1957 29.1665C14.1957 27.6194 14.8145 26.1357 15.9159 25.0417C17.0174 23.9478 18.5113 23.3332 20.0689 23.3332C21.6266 23.3332 23.1205 23.9478 24.222 25.0417C25.3234 26.1357 25.9422 27.6194 25.9422 29.1665C25.9422 29.3875 26.0306 29.5995 26.188 29.7558C26.3453 29.912 26.5587 29.9998 26.7813 29.9998C27.0038 29.9998 27.2172 29.912 27.3746 29.7558C27.5319 29.5995 27.6203 29.3875 27.6203 29.1665C27.6181 27.1781 26.8218 25.2717 25.4061 23.8656C23.9904 22.4596 22.071 21.6687 20.0689 21.6665Z" fill="white"/>
</g>
<defs>
<clipPath id="clip0_242_415">
<rect width="20.137" height="20" fill="white" transform="translate(10 10)"/>
</clipPath>
</defs>
</svg>
