<svg width="27" height="24" viewBox="0 0 27 24" fill="none" xmlns="http://www.w3.org/2000/svg">
<g clip-path="url(#clip0_333_223)">
<path d="M18.9275 7.3975C18.6931 7.1162 18.3996 6.88996 18.0679 6.73485C17.7363 6.57973 17.3745 6.49955 17.0083 6.5H3.535L3.5 6.2075C3.42837 5.59951 3.13615 5.03894 2.67874 4.63206C2.22133 4.22519 1.63052 4.00028 1.01833 4H0.833333C0.61232 4 0.400358 4.0878 0.244078 4.24408C0.0877974 4.40036 0 4.61232 0 4.83333C0 5.05435 0.0877974 5.26631 0.244078 5.42259C0.400358 5.57887 0.61232 5.66667 0.833333 5.66667H1.01833C1.22244 5.66669 1.41945 5.74163 1.57198 5.87726C1.72451 6.0129 1.82195 6.19979 1.84583 6.4025L2.9925 16.1525C3.11154 17.1665 3.59873 18.1015 4.36159 18.78C5.12445 19.4585 6.10988 19.8334 7.13083 19.8333H15.8333C16.0543 19.8333 16.2663 19.7455 16.4226 19.5893C16.5789 19.433 16.6667 19.221 16.6667 19C16.6667 18.779 16.5789 18.567 16.4226 18.4107C16.2663 18.2545 16.0543 18.1667 15.8333 18.1667H7.13083C6.61505 18.1652 6.11233 18.0043 5.69161 17.7059C5.27089 17.4075 4.95276 16.9863 4.78083 16.5H14.7142C15.6911 16.5001 16.6369 16.1569 17.3865 15.5304C18.1361 14.9039 18.6417 14.0339 18.815 13.0725L19.4692 9.44417C19.5345 9.08417 19.5198 8.71422 19.4262 8.36053C19.3326 8.00684 19.1623 7.67806 18.9275 7.3975ZM17.8333 9.14833L17.1783 12.7767C17.0743 13.3542 16.7704 13.8767 16.3199 14.2527C15.8694 14.6287 15.301 14.8342 14.7142 14.8333H4.51583L3.73167 8.16667H17.0083C17.1307 8.16594 17.2518 8.19218 17.3629 8.24355C17.4741 8.29491 17.5725 8.37012 17.6513 8.46384C17.73 8.55756 17.7872 8.66748 17.8186 8.78578C17.8501 8.90409 17.8551 9.02787 17.8333 9.14833Z" fill="black"/>
<path d="M5.83268 23.9998C6.75316 23.9998 7.49935 23.2536 7.49935 22.3332C7.49935 21.4127 6.75316 20.6665 5.83268 20.6665C4.91221 20.6665 4.16602 21.4127 4.16602 22.3332C4.16602 23.2536 4.91221 23.9998 5.83268 23.9998Z" fill="black"/>
<path d="M14.1667 23.9998C15.0871 23.9998 15.8333 23.2536 15.8333 22.3332C15.8333 21.4127 15.0871 20.6665 14.1667 20.6665C13.2462 20.6665 12.5 21.4127 12.5 22.3332C12.5 23.2536 13.2462 23.9998 14.1667 23.9998Z" fill="black"/>
</g>
<circle cx="20" cy="7" r="7" fill="#93C0B5"/>
<defs>
<clipPath id="clip0_333_223">
<rect width="20" height="20" fill="white" transform="translate(0 4)"/>
</clipPath>
</defs>
</svg>
