<svg width="102" height="104" viewBox="0 0 102 104" fill="none" xmlns="http://www.w3.org/2000/svg">
<circle cx="50" cy="50" r="50" fill="#EAEAEA"/>
<g clip-path="url(#clip0_633_114)">
<path d="M50.1716 50C52.6608 50 55.0941 49.2669 57.1637 47.8934C59.2334 46.5199 60.8466 44.5676 61.7991 42.2835C62.7517 39.9995 63.001 37.4861 62.5153 35.0614C62.0297 32.6366 60.8311 30.4093 59.0709 28.6612C57.3108 26.913 55.0683 25.7225 52.6269 25.2402C50.1855 24.7579 47.655 25.0054 45.3552 25.9515C43.0555 26.8976 41.0899 28.4998 39.707 30.5554C38.3241 32.611 37.5859 35.0277 37.5859 37.5C37.5893 40.8142 38.9163 43.9917 41.2759 46.3352C43.6354 48.6787 46.8347 49.9967 50.1716 50ZM50.1716 29.1667C51.831 29.1667 53.4532 29.6554 54.833 30.5711C56.2128 31.4868 57.2882 32.7883 57.9233 34.311C58.5583 35.8337 58.7245 37.5092 58.4007 39.1258C58.077 40.7423 57.2779 42.2271 56.1045 43.3926C54.931 44.558 53.436 45.3517 51.8084 45.6732C50.1809 45.9948 48.4938 45.8297 46.9607 45.199C45.4275 44.5683 44.1171 43.5002 43.1952 42.1298C42.2732 40.7593 41.7811 39.1482 41.7811 37.5C41.7811 35.2899 42.6651 33.1703 44.2386 31.6074C45.8121 30.0446 47.9463 29.1667 50.1716 29.1667Z" fill="white"/>
<path d="M50.1714 54.167C45.1662 54.1725 40.3677 56.1497 36.8285 59.6648C33.2893 63.1799 31.2985 67.9459 31.293 72.917C31.293 73.4695 31.514 73.9994 31.9073 74.3901C32.3007 74.7808 32.8343 75.0003 33.3906 75.0003C33.9469 75.0003 34.4804 74.7808 34.8738 74.3901C35.2672 73.9994 35.4882 73.4695 35.4882 72.917C35.4882 69.0493 37.0352 65.3399 39.7888 62.605C42.5424 59.8701 46.2772 58.3337 50.1714 58.3337C54.0656 58.3337 57.8004 59.8701 60.554 62.605C63.3076 65.3399 64.8546 69.0493 64.8546 72.917C64.8546 73.4695 65.0756 73.9994 65.469 74.3901C65.8624 74.7808 66.3959 75.0003 66.9522 75.0003C67.5085 75.0003 68.0421 74.7808 68.4354 74.3901C68.8288 73.9994 69.0498 73.4695 69.0498 72.917C69.0443 67.9459 67.0535 63.1799 63.5143 59.6648C59.9751 56.1497 55.1766 54.1725 50.1714 54.167Z" fill="white"/>
</g>
<g filter="url(#filter0_d_633_114)">
<circle cx="83" cy="83" r="17" fill="white"/>
</g>
<g clip-path="url(#clip1_633_114)">
<path d="M82.9318 79.667C82.277 79.667 81.6369 79.8625 81.0925 80.2288C80.548 80.595 80.1237 81.1156 79.8731 81.7247C79.6225 82.3338 79.557 83.004 79.6847 83.6506C79.8125 84.2972 80.1278 84.8912 80.5908 85.3573C81.0538 85.8235 81.6437 86.141 82.2859 86.2696C82.9281 86.3982 83.5937 86.3322 84.1987 86.0799C84.8036 85.8276 85.3207 85.4004 85.6845 84.8522C86.0482 84.3041 86.2424 83.6596 86.2424 83.0003C86.2424 82.1163 85.8936 81.2684 85.2727 80.6433C84.6519 80.0182 83.8098 79.667 82.9318 79.667ZM82.9318 84.667C82.6044 84.667 82.2843 84.5692 82.0121 84.3861C81.7399 84.203 81.5277 83.9427 81.4024 83.6381C81.2771 83.3336 81.2444 82.9985 81.3082 82.6752C81.3721 82.3519 81.5298 82.0549 81.7613 81.8218C81.9928 81.5887 82.2877 81.43 82.6088 81.3657C82.9299 81.3014 83.2627 81.3344 83.5652 81.4605C83.8677 81.5867 84.1262 81.8003 84.3081 82.0744C84.49 82.3485 84.5871 82.6707 84.5871 83.0003C84.5871 83.4424 84.4127 83.8663 84.1022 84.1788C83.7918 84.4914 83.3708 84.667 82.9318 84.667Z" fill="#C4C4C4"/>
<path d="M90.6244 84.5833L90.2569 84.37C90.4224 83.4637 90.4224 82.5346 90.2569 81.6283L90.6244 81.415C90.907 81.2508 91.1547 81.0323 91.3534 80.7717C91.5521 80.5112 91.6979 80.2138 91.7824 79.8965C91.867 79.5792 91.8886 79.2483 91.8461 78.9226C91.8037 78.5969 91.6979 78.2829 91.5349 77.9983C91.3718 77.7138 91.1547 77.4644 90.8959 77.2643C90.6372 77.0643 90.3418 76.9175 90.0267 76.8324C89.7116 76.7473 89.3829 76.7255 89.0594 76.7682C88.736 76.811 88.424 76.9175 88.1414 77.0817L87.7731 77.2958C87.0775 76.6974 86.2781 76.2335 85.4151 75.9275V75.5C85.4151 74.837 85.1535 74.2011 84.6879 73.7322C84.2222 73.2634 83.5906 73 82.9321 73C82.2736 73 81.642 73.2634 81.1764 73.7322C80.7107 74.2011 80.4491 74.837 80.4491 75.5V75.9275C79.5862 76.2346 78.787 76.6997 78.0919 77.2992L77.722 77.0833C77.1512 76.7518 76.4731 76.6621 75.8367 76.8341C75.2003 77.006 74.6578 77.4254 74.3285 78C73.9993 78.5746 73.9102 79.2574 74.081 79.8982C74.2517 80.5389 74.6682 81.0851 75.239 81.4167L75.6065 81.63C75.441 82.5363 75.441 83.4654 75.6065 84.3717L75.239 84.585C74.6682 84.9165 74.2517 85.4627 74.081 86.1035C73.9102 86.7442 73.9993 87.427 74.3285 88.0017C74.6578 88.5763 75.2003 88.9957 75.8367 89.1676C76.4731 89.3395 77.1512 89.2499 77.722 88.9183L78.0903 88.7042C78.7861 89.3027 79.5859 89.7666 80.4491 90.0725V90.5C80.4491 91.163 80.7107 91.7989 81.1764 92.2678C81.642 92.7366 82.2736 93 82.9321 93C83.5906 93 84.2222 92.7366 84.6879 92.2678C85.1535 91.7989 85.4151 91.163 85.4151 90.5V90.0725C86.278 89.7654 87.0772 89.3003 87.7723 88.7008L88.1423 88.9158C88.713 89.2474 89.3911 89.337 90.0275 89.1651C90.6639 88.9932 91.2064 88.5738 91.5357 87.9992C91.8649 87.4245 91.954 86.7417 91.7833 86.101C91.6125 85.4602 91.196 84.914 90.6253 84.5825L90.6244 84.5833ZM88.5155 81.4367C88.7958 82.4592 88.7958 83.5391 88.5155 84.5617C88.4666 84.7396 88.4778 84.9289 88.5473 85.0998C88.6168 85.2707 88.7407 85.4135 88.8996 85.5058L89.7968 86.0275C89.987 86.138 90.1258 86.3201 90.1827 86.5336C90.2396 86.7472 90.2099 86.9747 90.1001 87.1662C89.9903 87.3578 89.8095 87.4975 89.5974 87.5548C89.3853 87.6121 89.1593 87.5822 88.9691 87.4717L88.0703 86.9483C87.9113 86.8556 87.7261 86.8188 87.5441 86.8437C87.362 86.8686 87.1933 86.9538 87.0646 87.0858C86.3279 87.843 85.3999 88.3833 84.3805 88.6483C84.2026 88.6944 84.045 88.7987 83.9324 88.9449C83.8199 89.0911 83.7589 89.2709 83.7589 89.4558V90.5C83.7589 90.721 83.6717 90.933 83.5165 91.0893C83.3613 91.2455 83.1508 91.3333 82.9313 91.3333C82.7118 91.3333 82.5013 91.2455 82.346 91.0893C82.1908 90.933 82.1036 90.721 82.1036 90.5V89.4567C82.1037 89.2717 82.0427 89.092 81.9301 88.9458C81.8176 88.7996 81.66 88.6952 81.482 88.6492C80.4627 88.3831 79.5348 87.8416 78.7988 87.0833C78.6701 86.9513 78.5014 86.8661 78.3193 86.8412C78.1373 86.8163 77.9521 86.8531 77.7931 86.9458L76.896 87.4683C76.8018 87.5239 76.6976 87.5602 76.5895 87.5751C76.4813 87.59 76.3713 87.5832 76.2658 87.5551C76.1603 87.527 76.0613 87.4782 75.9746 87.4114C75.8879 87.3446 75.8152 87.2613 75.7606 87.1661C75.706 87.0709 75.6707 86.9658 75.6566 86.8568C75.6425 86.7479 75.65 86.6371 75.6786 86.5311C75.7072 86.425 75.7564 86.3257 75.8233 86.2389C75.8901 86.152 75.9734 86.0793 76.0683 86.025L76.9655 85.5033C77.1244 85.411 77.2483 85.2682 77.3178 85.0973C77.3873 84.9264 77.3985 84.7371 77.3495 84.5592C77.0692 83.5366 77.0692 82.4567 77.3495 81.4342C77.3976 81.2566 77.3859 81.0679 77.3163 80.8977C77.2466 80.7275 77.123 80.5853 76.9647 80.4933L76.0675 79.9717C75.8773 79.8612 75.7384 79.6791 75.6816 79.4655C75.6247 79.252 75.6544 79.0244 75.7641 78.8329C75.8739 78.6414 76.0547 78.5016 76.2668 78.4444C76.4789 78.3871 76.7049 78.417 76.8951 78.5275L77.794 79.0508C77.9525 79.1438 78.1373 79.181 78.3191 79.1567C78.501 79.1324 78.6697 79.048 78.7988 78.9167C79.5355 78.1595 80.4635 77.6192 81.4829 77.3542C81.6613 77.308 81.8194 77.2031 81.932 77.0563C82.0446 76.9094 82.1053 76.7289 82.1044 76.5433V75.5C82.1044 75.279 82.1916 75.067 82.3469 74.9107C82.5021 74.7545 82.7126 74.6667 82.9321 74.6667C83.1516 74.6667 83.3621 74.7545 83.5174 74.9107C83.6726 75.067 83.7598 75.279 83.7598 75.5V76.5433C83.7597 76.7283 83.8207 76.908 83.9333 77.0542C84.0458 77.2004 84.2034 77.3048 84.3814 77.3508C85.401 77.6168 86.3292 78.1582 87.0655 78.9167C87.1941 79.0487 87.3628 79.1339 87.5449 79.1588C87.727 79.1837 87.9121 79.1469 88.0711 79.0542L88.9683 78.5317C89.0624 78.4761 89.1666 78.4398 89.2747 78.4249C89.3829 78.41 89.4929 78.4168 89.5984 78.4449C89.7039 78.473 89.8029 78.5218 89.8896 78.5886C89.9763 78.6554 90.0491 78.7387 90.1036 78.8339C90.1582 78.9291 90.1935 79.0342 90.2076 79.1432C90.2217 79.2521 90.2142 79.3628 90.1856 79.4689C90.157 79.575 90.1079 79.6743 90.041 79.7611C89.9741 79.848 89.8908 79.9207 89.7959 79.975L88.8987 80.4967C88.7407 80.5889 88.6174 80.7312 88.5481 80.9014C88.4788 81.0716 88.4673 81.2601 88.5155 81.4375V81.4367Z" fill="#C4C4C4"/>
</g>
<defs>
<filter id="filter0_d_633_114" x="64" y="66" width="38" height="38" filterUnits="userSpaceOnUse" color-interpolation-filters="sRGB">
<feFlood flood-opacity="0" result="BackgroundImageFix"/>
<feColorMatrix in="SourceAlpha" type="matrix" values="0 0 0 0 0 0 0 0 0 0 0 0 0 0 0 0 0 0 127 0" result="hardAlpha"/>
<feOffset dy="2"/>
<feGaussianBlur stdDeviation="1"/>
<feComposite in2="hardAlpha" operator="out"/>
<feColorMatrix type="matrix" values="0 0 0 0 0 0 0 0 0 0 0 0 0 0 0 0 0 0 0.25 0"/>
<feBlend mode="normal" in2="BackgroundImageFix" result="effect1_dropShadow_633_114"/>
<feBlend mode="normal" in="SourceGraphic" in2="effect1_dropShadow_633_114" result="shape"/>
</filter>
<clipPath id="clip0_633_114">
<rect width="50.3425" height="50" fill="white" transform="translate(25 25)"/>
</clipPath>
<clipPath id="clip1_633_114">
<rect width="19.8639" height="20" fill="white" transform="translate(73 73)"/>
</clipPath>
</defs>
</svg>
