<svg width="24" height="24" viewBox="0 0 24 24" fill="none" xmlns="http://www.w3.org/2000/svg">
<g clip-path="url(#clip0_448_167)">
<path d="M23.7068 22.293L17.7378 16.324C19.3644 14.3346 20.1642 11.7961 19.9716 9.23359C19.7791 6.67106 18.609 4.28056 16.7034 2.55655C14.7977 0.832536 12.3024 -0.0930816 9.73342 -0.0288498C7.16447 0.035382 4.71848 1.08455 2.90139 2.90164C1.08431 4.71873 0.0351378 7.16472 -0.029094 9.73367C-0.0933258 12.3026 0.832292 14.798 2.5563 16.7036C4.28031 18.6092 6.67081 19.7793 9.23334 19.9719C11.7959 20.1644 14.3344 19.3646 16.3238 17.738L22.2928 23.707C22.4814 23.8892 22.734 23.99 22.9962 23.9877C23.2584 23.9854 23.5092 23.8802 23.6946 23.6948C23.88 23.5094 23.9852 23.2586 23.9875 22.9964C23.9897 22.7342 23.8889 22.4816 23.7068 22.293ZM9.99978 18C8.41753 18 6.87081 17.5308 5.55522 16.6518C4.23963 15.7727 3.21425 14.5233 2.60874 13.0615C2.00324 11.5997 1.84482 9.99115 2.1535 8.4393C2.46218 6.88745 3.22411 5.46199 4.34293 4.34317C5.46175 3.22435 6.88721 2.46242 8.43906 2.15374C9.9909 1.84506 11.5994 2.00349 13.0612 2.60899C14.5231 3.21449 15.7725 4.23987 16.6515 5.55546C17.5306 6.87106 17.9998 8.41777 17.9998 10C17.9974 12.121 17.1538 14.1545 15.654 15.6542C14.1542 17.154 12.1208 17.9976 9.99978 18Z" fill="#D4D4D4"/>
</g>
<defs>
<clipPath id="clip0_448_167">
<rect width="24" height="24" fill="white"/>
</clipPath>
</defs>
</svg>
