<svg width="319" height="186" viewBox="0 0 319 186" fill="none" xmlns="http://www.w3.org/2000/svg">
<circle r="88" transform="matrix(-1 0 0 1 231 88)" fill="#F8F8F8"/>
<path d="M160.499 117.5C161.166 131.5 155.099 164.4 125.499 184C123.666 166.167 128.099 127.9 160.499 117.5Z" fill="#6F6F6F" stroke="#6F6F6F" stroke-width="2"/>
<path d="M120 114C117 130.348 99.6 161.714 54 156.402C58.1667 145.163 75.2 120.948 110 114" stroke="#6F6F6F" stroke-width="2"/>
<path d="M261.5 104.5C257.167 112.167 234.4 125.8 178 119C121.6 112.2 106.5 113.5 106 115" stroke="#6F6F6F" stroke-width="2"/>
<path d="M228.499 119C230.666 114.167 229.099 103.2 205.499 98C208.499 103.5 217.298 115.4 228.499 119Z" fill="#6D6E6F" stroke="#6D6E6F" stroke-width="2"/>
<path d="M194.5 120.5C195.167 107.167 183.7 75.9 132.5 57.5C135.167 73.6667 151.301 108.9 194.5 120.5Z" stroke="#6F6F6F" stroke-width="2"/>
<path d="M120.852 114C122.538 107 110.529 90 49 78C53.3853 84 71.264 99.6 107.696 114" stroke="#6F6F6F" stroke-width="2"/>
<path d="M207.571 121C215.39 129.101 223.74 152.843 194.596 183C186.944 172.584 177.428 145.602 200.584 121" stroke="#6F6F6F" stroke-width="2"/>
<circle r="7" transform="matrix(-1 0 0 1 57 123)" stroke="#757571" stroke-width="2"/>
<circle r="6" transform="matrix(-1 0 0 1 45 97)" stroke="#757571" stroke-width="2"/>
<circle r="3.5" transform="matrix(-1 0 0 1 27.5 120.5)" fill="#757571"/>
<circle r="3" transform="matrix(-1 0 0 1 3 107)" fill="#757571"/>
</svg>
