<svg width="14" height="14" viewBox="0 0 14 14" fill="none" xmlns="http://www.w3.org/2000/svg">
<g clip-path="url(#clip0_241_1284)">
<path d="M13.9048 5.83338C13.9048 5.7908 13.9001 5.74835 13.8909 5.7068L13.1377 2.2838C12.9977 1.6341 12.6402 1.05261 12.125 0.636805C11.6098 0.221005 10.9683 -0.00381289 10.3081 4.89352e-05H3.5967C2.93683 -0.00327624 2.29587 0.221787 1.78116 0.637543C1.26645 1.0533 0.909254 1.6345 0.769398 2.2838L0.0139056 5.7068C0.00464041 5.74835 -2.29776e-05 5.7908 7.93382e-07 5.83338V6.41672C-0.000466643 6.98465 0.20563 7.53309 0.579366 7.95847V11.0834C0.580286 11.8566 0.885782 12.598 1.42884 13.1448C1.9719 13.6915 2.70819 13.9991 3.47619 14H10.4286C11.1966 13.9991 11.9329 13.6915 12.4759 13.1448C13.019 12.598 13.3245 11.8566 13.3254 11.0834V7.95847C13.6991 7.53309 13.9052 6.98465 13.9048 6.41672V5.83338ZM1.15873 5.89697L1.90032 2.53697C1.98435 2.14745 2.1987 1.7988 2.5075 1.54937C2.8163 1.29994 3.20081 1.16485 3.5967 1.16672H4.05556V2.91672C4.05556 3.07143 4.1166 3.2198 4.22525 3.32919C4.3339 3.43859 4.48127 3.50005 4.63492 3.50005C4.78858 3.50005 4.93594 3.43859 5.0446 3.32919C5.15325 3.2198 5.21429 3.07143 5.21429 2.91672V1.16672H8.69048V2.91672C8.69048 3.07143 8.75152 3.2198 8.86017 3.32919C8.96882 3.43859 9.11619 3.50005 9.26985 3.50005C9.4235 3.50005 9.57087 3.43859 9.67952 3.32919C9.78817 3.2198 9.84921 3.07143 9.84921 2.91672V1.16672H10.3081C10.704 1.16485 11.0885 1.29994 11.3973 1.54937C11.7061 1.7988 11.9204 2.14745 12.0044 2.53697L12.746 5.89697V6.41672C12.746 6.72614 12.624 7.02288 12.4067 7.24167C12.1893 7.46047 11.8946 7.58338 11.5873 7.58338H11.0079C10.7006 7.58338 10.4059 7.46047 10.1886 7.24167C9.97129 7.02288 9.84921 6.72614 9.84921 6.41672C9.84921 6.26201 9.78817 6.11363 9.67952 6.00424C9.57087 5.89484 9.4235 5.83338 9.26985 5.83338C9.11619 5.83338 8.96882 5.89484 8.86017 6.00424C8.75152 6.11363 8.69048 6.26201 8.69048 6.41672C8.69048 6.72614 8.5684 7.02288 8.3511 7.24167C8.13379 7.46047 7.83906 7.58338 7.53175 7.58338H6.37302C6.0657 7.58338 5.77098 7.46047 5.55367 7.24167C5.33637 7.02288 5.21429 6.72614 5.21429 6.41672C5.21429 6.26201 5.15325 6.11363 5.0446 6.00424C4.93594 5.89484 4.78858 5.83338 4.63492 5.83338C4.48127 5.83338 4.3339 5.89484 4.22525 6.00424C4.1166 6.11363 4.05556 6.26201 4.05556 6.41672C4.05556 6.72614 3.93348 7.02288 3.71617 7.24167C3.49887 7.46047 3.20414 7.58338 2.89683 7.58338H2.31746C2.01015 7.58338 1.71542 7.46047 1.49812 7.24167C1.28081 7.02288 1.15873 6.72614 1.15873 6.41672V5.89697ZM10.4286 12.8334H3.47619C3.01522 12.8334 2.57313 12.649 2.24717 12.3208C1.92122 11.9926 1.7381 11.5475 1.7381 11.0834V8.67597C1.92732 8.7253 2.122 8.75019 2.31746 8.75005H2.89683C3.2258 8.75022 3.55102 8.6797 3.85075 8.54319C4.15049 8.40668 4.41783 8.20733 4.63492 7.95847C4.85201 8.20733 5.11936 8.40668 5.41909 8.54319C5.71883 8.6797 6.04405 8.75022 6.37302 8.75005H7.53175C7.86072 8.75022 8.18594 8.6797 8.48568 8.54319C8.78541 8.40668 9.05276 8.20733 9.26985 7.95847C9.48693 8.20733 9.75428 8.40668 10.054 8.54319C10.3537 8.6797 10.679 8.75022 11.0079 8.75005H11.5873C11.7828 8.75019 11.9775 8.7253 12.1667 8.67597V11.0834C12.1667 11.5475 11.9836 11.9926 11.6576 12.3208C11.3316 12.649 10.8895 12.8334 10.4286 12.8334Z" fill="#9493C0"/>
</g>
<defs>
<clipPath id="clip0_241_1284">
<rect width="13.9048" height="14" fill="white"/>
</clipPath>
</defs>
</svg>
