<svg width="319" height="186" viewBox="0 0 319 186" fill="none" xmlns="http://www.w3.org/2000/svg">
<circle cx="88" cy="88" r="88" fill="#F8F8F8"/>
<path d="M158.501 117.5C157.834 131.5 163.901 164.4 193.501 184C195.334 166.167 190.901 127.9 158.501 117.5Z" fill="#6F6F6F" stroke="#6F6F6F" stroke-width="2"/>
<path d="M199 114C202 130.348 219.4 161.714 265 156.402C260.833 145.163 243.8 120.948 209 114" stroke="#6F6F6F" stroke-width="2"/>
<path d="M57.5 104.5C61.8333 112.167 84.6 125.8 141 119C197.4 112.2 212.5 113.5 213 115" stroke="#6F6F6F" stroke-width="2"/>
<path d="M90.5009 119C88.3342 114.167 89.9009 103.2 113.501 98C110.501 103.5 101.702 115.4 90.5009 119Z" fill="#6D6E6F" stroke="#6D6E6F" stroke-width="2"/>
<path d="M124.5 120.5C123.833 107.167 135.3 75.9 186.5 57.5C183.833 73.6667 167.699 108.9 124.5 120.5Z" stroke="#6F6F6F" stroke-width="2"/>
<path d="M198.148 114C196.462 107 208.471 90 270 78C265.615 84 247.736 99.6 211.304 114" stroke="#6F6F6F" stroke-width="2"/>
<path d="M111.429 121C103.61 129.101 95.2598 152.843 124.404 183C132.056 172.584 141.572 145.602 118.416 121" stroke="#6F6F6F" stroke-width="2"/>
<circle cx="262" cy="123" r="7" stroke="#757571" stroke-width="2"/>
<circle cx="274" cy="97" r="6" stroke="#757571" stroke-width="2"/>
<circle cx="291.5" cy="120.5" r="3.5" fill="#757571"/>
<circle cx="316" cy="107" r="3" fill="#757571"/>
</svg>
