<svg width="15" height="14" viewBox="0 0 15 14" fill="none" xmlns="http://www.w3.org/2000/svg">
<g clip-path="url(#clip0_296_1528)">
<path d="M7.04839 7C7.74536 7 8.42669 6.79473 9.0062 6.41015C9.58572 6.02556 10.0374 5.47894 10.3041 4.83939C10.5708 4.19985 10.6406 3.49612 10.5046 2.81719C10.3687 2.13825 10.033 1.51461 9.54021 1.02513C9.04738 0.535644 8.41946 0.202301 7.73588 0.0672531C7.0523 -0.0677952 6.34374 0.0015165 5.69982 0.266423C5.0559 0.53133 4.50553 0.979934 4.11831 1.55551C3.73109 2.13108 3.52441 2.80777 3.52441 3.5C3.52535 4.42798 3.89692 5.31768 4.55759 5.97385C5.21826 6.63003 6.11406 6.99908 7.04839 7ZM7.04839 1.16667C7.51304 1.16667 7.96725 1.30352 8.3536 1.55991C8.73994 1.8163 9.04106 2.18071 9.21887 2.60707C9.39669 3.03343 9.44321 3.50259 9.35256 3.95521C9.26191 4.40784 9.03816 4.8236 8.7096 5.14992C8.38105 5.47624 7.96244 5.69847 7.50672 5.7885C7.05099 5.87853 6.57862 5.83233 6.14934 5.65572C5.72006 5.47912 5.35315 5.18005 5.095 4.79633C4.83686 4.41262 4.69907 3.96149 4.69907 3.5C4.69907 2.88116 4.94659 2.28767 5.38717 1.85009C5.82775 1.4125 6.42531 1.16667 7.04839 1.16667Z" fill="#C09693"/>
<path d="M7.04768 8.16699C5.64623 8.16854 4.30263 8.72216 3.31166 9.70639C2.32068 10.6906 1.76327 12.0251 1.76172 13.417C1.76172 13.5717 1.8236 13.7201 1.93374 13.8295C2.04389 13.9389 2.19328 14.0003 2.34905 14.0003C2.50482 14.0003 2.65421 13.9389 2.76435 13.8295C2.8745 13.7201 2.93638 13.5717 2.93638 13.417C2.93638 12.334 3.36953 11.2954 4.14055 10.5296C4.91157 9.76387 5.95729 9.33366 7.04768 9.33366C8.13806 9.33366 9.18379 9.76387 9.9548 10.5296C10.7258 11.2954 11.159 12.334 11.159 13.417C11.159 13.5717 11.2209 13.7201 11.331 13.8295C11.4411 13.9389 11.5905 14.0003 11.7463 14.0003C11.9021 14.0003 12.0515 13.9389 12.1616 13.8295C12.2718 13.7201 12.3336 13.5717 12.3336 13.417C12.3321 12.0251 11.7747 10.6906 10.7837 9.70639C9.79272 8.72216 8.44912 8.16854 7.04768 8.16699Z" fill="#C09693"/>
</g>
<defs>
<clipPath id="clip0_296_1528">
<rect width="14.0959" height="14" fill="white"/>
</clipPath>
</defs>
</svg>
